<?xml version="1.0" encoding="UTF-8"?><svg id="Layer_1" xmlns="http://www.w3.org/2000/svg" viewBox="0 0 109.07 130.35"><defs><style>.cls-1{fill:none;}.cls-2{fill:#f25c05;}.cls-3{fill:#fefefe;}</style></defs><path class="cls-3" d="M12.54,0l-.18.54c-1.26.55-2.23,1.5-2.71,2.8L1.54,31.54l-.48.13.26-.43h26.48l.26.43-.39-.23c2.1-10.42,4.2-20.85,6.3-31.27l.47-.17h9.14l.39.23c-2.03,10.42-4.06,20.85-6.09,31.27l-.47.18.15-.38c11.19-.05,22.39-.07,33.61-.04l.26.43-.4-.07c-2.08-10.41-4.12-20.83-6.13-31.27l.37-.34h9.14l.39.07c2.16,10.4,4.28,20.82,6.35,31.26l-.37.34.15-.43h26.6l.26.43-.48-.13-8.11-28.21c-.51-1.34-1.51-2.34-2.86-2.81l-.24-.53h12.97v109.07H0V42.31l.54.36c1.11,3.59,3.41,6.01,7.15,6.65s13.89.89,17.44-.23c2.8-.88,4.89-2.91,5.8-5.71.64-2.26.75-2.55,1.55-.26,2.1,6.01,6.4,6.54,12.27,6.62,8.26.11,16.93-.06,25.19-.45,2.45-.12,5.78-3.49,6.33-5.88.73-3.25,1.26-1.5,1.89.66,2.09,4.89,6.06,5.42,10.76,5.62,3.4.14,11.61.42,14.46-1,2.37-1.18,4.67-3.72,5.03-6.39l.44-.29c-.17-.04-.42-.12-.43-.24-.11-1.38-.11-3.71,0-5.09l.43-.3-.2.43H.27l-.27-.43V0h12.54Z"/><path class="cls-2" d="M0,36.36h108.85v5.63c0,3.01-3.43,6.56-6.18,7.43-3.01.95-13,.81-16.47.55-4.9-.36-8.38-3.44-9.13-8.3-.38,3.92-3.24,7.14-7.07,8.03-9.38-.01-19.75.92-29.08.28-4.84-.34-8.57-3.36-9.13-8.3-.76,4.86-4.23,7.94-9.13,8.3-3.48.26-13.46.4-16.47-.55-3.26-1.03-5.34-3.89-6.18-7.11v-5.95Z"/><polygon class="cls-2" points="65.27 0 71.43 31.68 37.42 31.68 43.58 0 65.27 0"/><path class="cls-2" d="M34.44,0l-6.38,31.68H1.06L9.25,3.19c.64-1.63,1.69-2.53,3.29-3.19h21.9Z"/><path class="cls-2" d="M96.1,0c1.73.53,2.84,1.52,3.5,3.19l8.19,28.48h-27L74.41,0h21.69Z"/><path class="cls-2" d="M104.39,53.79v50.92c0,1.52-2.2,4.15-3.72,4.15h-50.71v-41.35c0-.29-.67-1.76-.89-2.09-.82-1.24-2.02-1.74-3.46-1.85-7.66-.58-16.06.43-23.8.03-1.62.04-3.74,2.41-3.74,3.91v41.35h-9.89c-1.52,0-3.72-2.63-3.72-4.15v-50.92c1.25.1,2.45.55,3.71.65,4.05.29,14.38.45,18.02-.49,2.1-.54,3.85-1.59,5.55-2.89,2.37,1.83,5.06,3.15,8.11,3.38,9.44.73,19.8-.56,29.34-.01,2.99-.35,5.56-1.53,7.91-3.37,1.7,1.3,3.45,2.34,5.55,2.89,3.64.94,13.97.79,18.02.49,1.26-.09,2.46-.54,3.71-.65Z"/><path class="cls-3" d="M60.7,63.62c4.21.43,8.94-.75,13.09-.06,1.37.23,2.13,2.15,2.24,4.57.16,3.37.18,10.28,0,13.61-.12,2.27-.96,4.17-2.24,4.37-4.12-.53-8.71.67-12.78,0-1.23-.2-2.08-1.93-2.23-4.18-.2-3.12-.18-10.84-.01-14.01.11-2.05.8-3.86,1.92-4.31Z"/><rect class="cls-1" x="5.66" y="110.5" width="65.21" height="18.8"/><path class="cls-2" d="M16.27,120.67h-7.45c-.03.49.02.95.14,1.38.12.43.34.78.68,1.05.34.27.83.4,1.48.4s1.17-.12,1.53-.37c.36-.24.65-.58.86-1l2.33.27c-.23.62-.55,1.15-.94,1.6-.4.45-.91.79-1.54,1.03-.63.24-1.43.36-2.38.36-1.16,0-2.11-.24-2.83-.71-.73-.47-1.22-1.13-1.49-1.99s-.3-1.86-.11-3.02c.31-1.71.96-3.01,1.95-3.89,1-.88,2.25-1.32,3.75-1.32,1.36,0,2.41.36,3.15,1.09.74.72,1.11,1.68,1.11,2.87,0,.32-.02.68-.05,1.05s-.1.77-.18,1.19ZM12.08,116.34c-.77,0-1.39.22-1.86.65-.47.43-.84,1.11-1.09,2.03h5.07c.06-.55.03-1.03-.09-1.43-.12-.4-.34-.71-.67-.93-.33-.22-.79-.33-1.36-.33Z"/><path class="cls-2" d="M22.4,125.4c-.97,0-1.76-.24-2.37-.71-.61-.47-1.03-1.13-1.26-1.97-.23-.84-.25-1.81-.07-2.92.29-1.69.88-2.99,1.77-3.92.9-.93,2-1.39,3.32-1.39.69,0,1.24.11,1.65.33.41.22.73.49.94.81.21.32.37.65.46.98h.1l.67-1.83h2.1l-1.82,10.31h-2.1l.05-1.66h-.1c-.2.34-.44.66-.73.96s-.64.53-1.06.72c-.42.18-.94.27-1.56.27ZM23.33,123.42c.62,0,1.14-.14,1.56-.41.42-.28.75-.67,1-1.19s.44-1.14.56-1.86c.11-.69.11-1.3,0-1.82-.12-.52-.35-.92-.7-1.21s-.82-.43-1.42-.43c-.92,0-1.62.29-2.1.88-.48.58-.83,1.45-1.04,2.6-.12.68-.14,1.27-.05,1.79.09.52.31.93.67,1.22.36.29.87.44,1.54.44Z"/><path class="cls-2" d="M35.68,125.42c-1.01,0-1.83-.12-2.47-.36-.64-.24-1.11-.6-1.42-1.08-.31-.48-.47-1.08-.48-1.8l2.35-.16c.03.37.12.67.28.9s.4.4.7.52c.31.11.69.17,1.17.17.68,0,1.2-.11,1.58-.33.38-.22.57-.56.57-1.04,0-.31-.11-.56-.34-.75-.22-.19-.58-.35-1.06-.48l-1.21-.32c-.86-.24-1.55-.58-2.06-1.03-.51-.44-.76-1.05-.76-1.83s.19-1.36.57-1.86c.38-.5.9-.88,1.57-1.14.67-.26,1.45-.38,2.35-.38,1.36,0,2.37.28,3.03.83.66.55.98,1.34.98,2.37l-2.34.13c-.01-.52-.15-.9-.42-1.13-.27-.24-.73-.36-1.38-.36s-1.1.1-1.46.3c-.35.2-.53.53-.53.98,0,.32.11.56.35.74.23.17.58.33,1.06.47l1.31.37c.9.25,1.57.59,2.03,1.03.46.44.69,1.01.69,1.73,0,.79-.2,1.45-.59,1.97-.39.52-.94.91-1.65,1.16-.7.26-1.51.38-2.43.38Z"/><path class="cls-2" d="M51.11,114.8h2.63l-5.4,10.31c-.45.86-.87,1.6-1.28,2.21-.4.61-.87,1.08-1.4,1.4-.53.32-1.21.48-2.04.48-.36,0-.71-.03-1.03-.1-.32-.06-.61-.13-.86-.2l.38-1.96c.21.05.42.1.65.14.22.04.46.06.7.06.38,0,.72-.06,1.01-.19.29-.12.57-.33.83-.63.27-.3.56-.7.88-1.22h-1.02l-2.03-10.31h2.51l1.38,8.16h.11l3.98-8.16Z"/><rect class="cls-1" x="55.94" y="110.92" width="48.39" height="18.12"/><path class="cls-2" d="M60.2,125.72c-.8,0-1.48-.12-2.01-.35-.54-.23-.95-.58-1.25-1.04-.3-.46-.49-1.03-.56-1.71l1.2-.02c.08.49.22.88.43,1.19.21.31.5.53.87.68.37.14.85.21,1.42.21.82,0,1.49-.19,2-.56s.76-.89.76-1.54c0-.45-.15-.8-.46-1.05-.31-.25-.77-.45-1.38-.6l-1.08-.26c-.81-.21-1.41-.52-1.8-.94-.4-.42-.59-.95-.59-1.6s.16-1.21.47-1.69.76-.85,1.35-1.12,1.27-.4,2.06-.4c1.13,0,1.96.26,2.5.77.54.52.84,1.25.92,2.2l-1.17.02c-.06-.68-.27-1.17-.63-1.48-.36-.31-.93-.47-1.7-.47s-1.44.18-1.91.53c-.47.35-.7.86-.7,1.5,0,.42.13.76.39,1.01.26.25.69.45,1.27.6l1.16.3c.82.19,1.44.5,1.86.91.42.41.63.96.63,1.66s-.17,1.25-.52,1.74c-.34.48-.82.86-1.43,1.12-.61.26-1.31.39-2.11.39Z"/><path class="cls-2" d="M70.09,116.31l-1.08,6.14c-.13.73-.08,1.26.15,1.59.23.33.66.49,1.3.49.28,0,.54-.02.77-.05.23-.04.45-.09.66-.15l-.11,1.06c-.23.08-.48.14-.73.18-.25.04-.54.06-.86.06-1.03,0-1.74-.28-2.11-.85-.38-.56-.48-1.34-.31-2.34l1.07-6.14h-2.07l.19-1.07h2.07l.83-2.97h.95l-.53,2.97h3.19l-.19,1.07h-3.2Z"/><path class="cls-2" d="M78.04,125.72c-1.05,0-1.9-.24-2.53-.73-.64-.48-1.07-1.14-1.3-1.98s-.25-1.78-.06-2.83c.31-1.71.93-3.01,1.84-3.9.92-.89,2.1-1.33,3.54-1.33,1.06,0,1.91.24,2.55.72s1.08,1.14,1.3,1.97c.22.83.24,1.77.05,2.81-.3,1.71-.91,3.02-1.83,3.92-.92.9-2.11,1.35-3.56,1.35ZM78.13,124.62c1.14,0,2.04-.36,2.69-1.08.65-.72,1.11-1.77,1.37-3.16.16-.82.17-1.56.04-2.22s-.42-1.17-.88-1.55c-.46-.38-1.1-.57-1.93-.57-1.13,0-2.02.36-2.68,1.07-.66.71-1.11,1.76-1.37,3.14-.15.83-.16,1.58-.03,2.24.13.66.42,1.18.87,1.56s1.09.57,1.92.57Z"/><path class="cls-2" d="M85.24,125.42l1.79-10.19h1.01l-.16,1.89h.02c.32-.69.72-1.23,1.2-1.6.48-.37,1.12-.56,1.92-.56.26,0,.5.02.71.05.21.04.38.08.5.12l-.22,1.17c-.1-.03-.25-.06-.43-.09s-.42-.05-.7-.05c-.64,0-1.2.16-1.67.49s-.85.77-1.14,1.33c-.29.56-.5,1.21-.63,1.93l-.97,5.51h-1.24Z"/><path class="cls-2" d="M101.48,120.69h-7.7c-.08.74-.04,1.41.11,2.01s.45,1.07.89,1.42c.44.35,1.07.52,1.87.52s1.45-.15,1.91-.45.84-.77,1.15-1.4l1.22.07c-.25.6-.56,1.11-.93,1.53-.37.43-.83.75-1.38.98-.56.23-1.25.35-2.07.35-1.06,0-1.91-.25-2.55-.73-.64-.49-1.07-1.16-1.29-2-.22-.84-.24-1.79-.05-2.85.3-1.66.91-2.94,1.82-3.84.92-.9,2.05-1.35,3.42-1.35,1.25,0,2.19.35,2.82,1.05.63.7.95,1.66.95,2.88,0,.24-.01.51-.04.81-.03.3-.07.64-.13,1.01ZM97.82,115.99c-1.01,0-1.83.32-2.46.96-.64.64-1.09,1.57-1.37,2.78h6.46c.1-.75.08-1.41-.06-1.97s-.42-1-.83-1.31c-.42-.31-.99-.46-1.72-.46Z"/><path class="cls-3" d="M84.4,63.62c4.21.43,8.94-.75,13.09-.06,1.37.23,2.13,2.15,2.24,4.57.16,3.37.18,10.28,0,13.61-.12,2.27-.96,4.17-2.24,4.37-4.12-.53-8.71.67-12.78,0-1.23-.2-2.08-1.93-2.23-4.18-.2-3.12-.18-10.84-.01-14.01.11-2.05.8-3.86,1.92-4.31Z"/></svg>